<mxfile host="app.diagrams.net" modified="2022-10-30T08:08:29.848Z" agent="5.0 (Windows NT 10.0; Win64; x64) AppleWebKit/537.36 (KHTML, like Gecko) Chrome/107.0.0.0 Safari/537.36" etag="g93n1eK06Ji06is7kISE" version="20.5.1" type="github">
  <diagram id="xx9TpC1ILhVTll8c-re6" name="Page-1">
    <mxGraphModel dx="1422" dy="777" grid="1" gridSize="10" guides="1" tooltips="1" connect="1" arrows="1" fold="1" page="1" pageScale="1" pageWidth="850" pageHeight="1100" math="0" shadow="0">
      <root>
        <mxCell id="0" />
        <mxCell id="1" parent="0" />
        <mxCell id="KTA2vXMQVvADgr5KPA1s-4" value="" style="edgeStyle=orthogonalEdgeStyle;rounded=0;orthogonalLoop=1;jettySize=auto;html=1;" edge="1" parent="1" source="KTA2vXMQVvADgr5KPA1s-2" target="KTA2vXMQVvADgr5KPA1s-3">
          <mxGeometry relative="1" as="geometry" />
        </mxCell>
        <mxCell id="KTA2vXMQVvADgr5KPA1s-2" value="用户登陆" style="ellipse;whiteSpace=wrap;html=1;" vertex="1" parent="1">
          <mxGeometry x="360" y="260" width="120" height="80" as="geometry" />
        </mxCell>
        <mxCell id="KTA2vXMQVvADgr5KPA1s-15" value="" style="edgeStyle=orthogonalEdgeStyle;rounded=0;orthogonalLoop=1;jettySize=auto;html=1;" edge="1" parent="1" source="KTA2vXMQVvADgr5KPA1s-3" target="KTA2vXMQVvADgr5KPA1s-13">
          <mxGeometry relative="1" as="geometry" />
        </mxCell>
        <mxCell id="KTA2vXMQVvADgr5KPA1s-3" value="用户鉴权" style="rounded=1;whiteSpace=wrap;html=1;" vertex="1" parent="1">
          <mxGeometry x="360" y="370" width="120" height="60" as="geometry" />
        </mxCell>
        <mxCell id="KTA2vXMQVvADgr5KPA1s-19" value="" style="edgeStyle=orthogonalEdgeStyle;rounded=0;orthogonalLoop=1;jettySize=auto;html=1;" edge="1" parent="1" source="KTA2vXMQVvADgr5KPA1s-5" target="KTA2vXMQVvADgr5KPA1s-18">
          <mxGeometry relative="1" as="geometry" />
        </mxCell>
        <mxCell id="KTA2vXMQVvADgr5KPA1s-5" value="访问数据库" style="rounded=1;whiteSpace=wrap;html=1;" vertex="1" parent="1">
          <mxGeometry x="90" y="480" width="120" height="60" as="geometry" />
        </mxCell>
        <mxCell id="KTA2vXMQVvADgr5KPA1s-10" value="导入数据" style="rounded=1;whiteSpace=wrap;html=1;" vertex="1" parent="1">
          <mxGeometry x="530" y="480" width="120" height="60" as="geometry" />
        </mxCell>
        <mxCell id="KTA2vXMQVvADgr5KPA1s-12" value="导出本地" style="rounded=1;whiteSpace=wrap;html=1;" vertex="1" parent="1">
          <mxGeometry x="170" y="810" width="120" height="60" as="geometry" />
        </mxCell>
        <mxCell id="KTA2vXMQVvADgr5KPA1s-17" value="" style="edgeStyle=orthogonalEdgeStyle;rounded=0;orthogonalLoop=1;jettySize=auto;html=1;" edge="1" parent="1" source="KTA2vXMQVvADgr5KPA1s-13" target="KTA2vXMQVvADgr5KPA1s-5">
          <mxGeometry relative="1" as="geometry" />
        </mxCell>
        <mxCell id="KTA2vXMQVvADgr5KPA1s-13" value="调取绩效数据" style="rounded=1;whiteSpace=wrap;html=1;" vertex="1" parent="1">
          <mxGeometry x="360" y="480" width="120" height="60" as="geometry" />
        </mxCell>
        <mxCell id="KTA2vXMQVvADgr5KPA1s-23" value="" style="edgeStyle=orthogonalEdgeStyle;rounded=0;orthogonalLoop=1;jettySize=auto;html=1;" edge="1" parent="1" source="KTA2vXMQVvADgr5KPA1s-18" target="KTA2vXMQVvADgr5KPA1s-22">
          <mxGeometry relative="1" as="geometry" />
        </mxCell>
        <mxCell id="KTA2vXMQVvADgr5KPA1s-18" value="绩效数据筛选" style="rounded=1;whiteSpace=wrap;html=1;" vertex="1" parent="1">
          <mxGeometry x="90" y="600" width="120" height="60" as="geometry" />
        </mxCell>
        <mxCell id="KTA2vXMQVvADgr5KPA1s-22" value="绩效核算" style="rounded=1;whiteSpace=wrap;html=1;" vertex="1" parent="1">
          <mxGeometry x="240" y="600" width="120" height="60" as="geometry" />
        </mxCell>
        <mxCell id="KTA2vXMQVvADgr5KPA1s-24" value="" style="edgeStyle=orthogonalEdgeStyle;rounded=0;orthogonalLoop=1;jettySize=auto;html=1;" edge="1" parent="1" source="KTA2vXMQVvADgr5KPA1s-22" target="KTA2vXMQVvADgr5KPA1s-13">
          <mxGeometry relative="1" as="geometry">
            <mxPoint x="620" y="340" as="sourcePoint" />
            <mxPoint x="620" y="580" as="targetPoint" />
            <Array as="points">
              <mxPoint x="400" y="630" />
            </Array>
          </mxGeometry>
        </mxCell>
        <mxCell id="KTA2vXMQVvADgr5KPA1s-30" value="" style="edgeStyle=orthogonalEdgeStyle;rounded=0;orthogonalLoop=1;jettySize=auto;html=1;" edge="1" parent="1" source="KTA2vXMQVvADgr5KPA1s-25" target="KTA2vXMQVvADgr5KPA1s-12">
          <mxGeometry relative="1" as="geometry" />
        </mxCell>
        <mxCell id="KTA2vXMQVvADgr5KPA1s-33" value="" style="edgeStyle=orthogonalEdgeStyle;rounded=0;orthogonalLoop=1;jettySize=auto;html=1;" edge="1" parent="1" source="KTA2vXMQVvADgr5KPA1s-25" target="KTA2vXMQVvADgr5KPA1s-32">
          <mxGeometry relative="1" as="geometry" />
        </mxCell>
        <mxCell id="KTA2vXMQVvADgr5KPA1s-25" value="绩效统计分析" style="rounded=1;whiteSpace=wrap;html=1;" vertex="1" parent="1">
          <mxGeometry x="360" y="680" width="120" height="60" as="geometry" />
        </mxCell>
        <mxCell id="KTA2vXMQVvADgr5KPA1s-26" value="" style="edgeStyle=orthogonalEdgeStyle;rounded=0;orthogonalLoop=1;jettySize=auto;html=1;" edge="1" parent="1" source="KTA2vXMQVvADgr5KPA1s-13" target="KTA2vXMQVvADgr5KPA1s-25">
          <mxGeometry relative="1" as="geometry">
            <mxPoint x="430" y="440" as="sourcePoint" />
            <mxPoint x="430" y="490" as="targetPoint" />
          </mxGeometry>
        </mxCell>
        <mxCell id="KTA2vXMQVvADgr5KPA1s-28" value="" style="edgeStyle=orthogonalEdgeStyle;rounded=0;orthogonalLoop=1;jettySize=auto;html=1;" edge="1" parent="1">
          <mxGeometry relative="1" as="geometry">
            <mxPoint x="430" y="440" as="sourcePoint" />
            <mxPoint x="430" y="490" as="targetPoint" />
          </mxGeometry>
        </mxCell>
        <mxCell id="KTA2vXMQVvADgr5KPA1s-29" style="edgeStyle=orthogonalEdgeStyle;rounded=0;orthogonalLoop=1;jettySize=auto;html=1;" edge="1" parent="1" source="KTA2vXMQVvADgr5KPA1s-3" target="KTA2vXMQVvADgr5KPA1s-10">
          <mxGeometry relative="1" as="geometry" />
        </mxCell>
        <mxCell id="KTA2vXMQVvADgr5KPA1s-32" value="转发数据" style="rounded=1;whiteSpace=wrap;html=1;" vertex="1" parent="1">
          <mxGeometry x="305" y="810" width="120" height="60" as="geometry" />
        </mxCell>
        <mxCell id="KTA2vXMQVvADgr5KPA1s-34" value="登出" style="rounded=1;whiteSpace=wrap;html=1;" vertex="1" parent="1">
          <mxGeometry x="460" y="810" width="120" height="60" as="geometry" />
        </mxCell>
        <mxCell id="KTA2vXMQVvADgr5KPA1s-36" style="edgeStyle=orthogonalEdgeStyle;rounded=0;orthogonalLoop=1;jettySize=auto;html=1;" edge="1" parent="1" source="KTA2vXMQVvADgr5KPA1s-10" target="KTA2vXMQVvADgr5KPA1s-34">
          <mxGeometry relative="1" as="geometry">
            <mxPoint x="490" y="410" as="sourcePoint" />
            <mxPoint x="600" y="490" as="targetPoint" />
          </mxGeometry>
        </mxCell>
        <mxCell id="KTA2vXMQVvADgr5KPA1s-37" value="" style="edgeStyle=orthogonalEdgeStyle;rounded=0;orthogonalLoop=1;jettySize=auto;html=1;" edge="1" parent="1" source="KTA2vXMQVvADgr5KPA1s-25" target="KTA2vXMQVvADgr5KPA1s-34">
          <mxGeometry relative="1" as="geometry">
            <mxPoint x="430" y="750" as="sourcePoint" />
            <mxPoint x="375" y="820" as="targetPoint" />
            <Array as="points">
              <mxPoint x="420" y="775" />
              <mxPoint x="510" y="775" />
            </Array>
          </mxGeometry>
        </mxCell>
      </root>
    </mxGraphModel>
  </diagram>
</mxfile>
